<svg width="40" height="40" viewBox="0 0 40 40" fill="none" xmlns="http://www.w3.org/2000/svg">
<mask id="mask0" mask-type="alpha" maskUnits="userSpaceOnUse" x="0" y="0" width="40" height="40">
<path d="M40 20C40 31.046 31.046 40 20 40C8.954 40 0 31.046 0 20C0 8.954 8.954 0 20 0C31.046 0 40 8.954 40 20Z" fill="white"/>
</mask>
<g mask="url(#mask0)">
<path d="M40 20C40 31.046 31.046 40 20 40C8.954 40 0 31.046 0 20C0 8.954 8.954 0 20 0C31.046 0 40 8.954 40 20Z" fill="#E5E5E5"/>
<path fill-rule="evenodd" clip-rule="evenodd" d="M14.5159 17.6912V16.2919C14.5159 13.375 16.9582 11.0024 19.9612 11.0024C22.9643 11.0024 25.4066 13.375 25.4066 16.2919V17.6912C25.4066 20.55 24.6985 25.3454 19.9612 25.3454C15.4606 25.3454 14.5159 21.1825 14.5159 17.6912ZM33.2176 33.0115C32.5999 31.8227 31.557 30.8965 30.2784 30.4044L24.6229 28.2262C24.1633 28.0498 23.8667 27.6348 23.8667 27.1697V24.9945H23.8589C25.4969 23.5752 26.3886 21.0803 26.3886 17.6912V16.2919C26.3886 12.8227 23.5044 10 19.9612 10C16.4181 10 13.5338 12.8227 13.5338 16.2919V17.6912C13.5338 21.1434 14.4088 23.6333 16.0547 25.0326V27.1697C16.0547 27.6348 15.7591 28.0498 15.2995 28.2262L9.64401 30.4044C8.36639 30.8965 7.3225 31.8227 6.70087 33.0206L5 36.4647L5.87597 36.9158L7.57292 33.4817C8.07768 32.5084 8.93695 31.7486 9.99165 31.3426L15.6462 29.1644C16.4917 28.8387 17.0367 28.0558 17.0367 27.1697V25.6862C17.8734 26.1192 18.8476 26.3477 19.9612 26.3477C21.0699 26.3477 22.0451 26.1082 22.8847 25.6591V27.1697C22.8847 28.0558 23.4307 28.8387 24.2753 29.1644L29.9308 31.3426C30.9855 31.7486 31.8447 32.5084 32.3475 33.4767L34.128 37L35 36.5409L33.2176 33.0115Z" fill="black"/>
</g>
</svg>
